<mxfile host="app.diagrams.net" modified="2024-03-21T17:21:22.717Z" agent="Mozilla/5.0 (Windows NT 10.0; Win64; x64) AppleWebKit/537.36 (KHTML, like Gecko) Chrome/122.0.0.0 Safari/537.36" etag="xC_y0bMY_WO3PmH1Ts2l" version="24.0.7" type="device">
  <diagram name="Page-1" id="Yj44Nx-YjexC3wQFOJ7Q">
    <mxGraphModel dx="880" dy="1600" grid="1" gridSize="10" guides="1" tooltips="1" connect="1" arrows="1" fold="1" page="1" pageScale="1" pageWidth="850" pageHeight="1100" math="0" shadow="0">
      <root>
        <mxCell id="0" />
        <mxCell id="1" parent="0" />
        <mxCell id="S_XeWQ3LaGlhyksbz3pL-1" value="User" style="rounded=0;whiteSpace=wrap;html=1;" vertex="1" parent="1">
          <mxGeometry x="100" y="240" width="150" height="70" as="geometry" />
        </mxCell>
        <mxCell id="S_XeWQ3LaGlhyksbz3pL-2" value="name" style="ellipse;whiteSpace=wrap;html=1;" vertex="1" parent="1">
          <mxGeometry x="40" y="80" width="90" height="60" as="geometry" />
        </mxCell>
        <mxCell id="S_XeWQ3LaGlhyksbz3pL-3" value="" style="endArrow=none;html=1;rounded=0;entryX=0.5;entryY=1;entryDx=0;entryDy=0;exitX=0.25;exitY=0;exitDx=0;exitDy=0;" edge="1" parent="1" source="S_XeWQ3LaGlhyksbz3pL-1" target="S_XeWQ3LaGlhyksbz3pL-2">
          <mxGeometry width="50" height="50" relative="1" as="geometry">
            <mxPoint x="400" y="320" as="sourcePoint" />
            <mxPoint x="450" y="270" as="targetPoint" />
          </mxGeometry>
        </mxCell>
        <mxCell id="S_XeWQ3LaGlhyksbz3pL-6" value="email(usernme)" style="ellipse;whiteSpace=wrap;html=1;" vertex="1" parent="1">
          <mxGeometry x="140" y="70" width="90" height="60" as="geometry" />
        </mxCell>
        <mxCell id="S_XeWQ3LaGlhyksbz3pL-7" value="" style="endArrow=none;html=1;rounded=0;entryX=0.411;entryY=1.017;entryDx=0;entryDy=0;exitX=0.167;exitY=-0.043;exitDx=0;exitDy=0;exitPerimeter=0;entryPerimeter=0;" edge="1" target="S_XeWQ3LaGlhyksbz3pL-6" parent="1">
          <mxGeometry width="50" height="50" relative="1" as="geometry">
            <mxPoint x="140" y="240" as="sourcePoint" />
            <mxPoint x="190" y="123" as="targetPoint" />
          </mxGeometry>
        </mxCell>
        <mxCell id="S_XeWQ3LaGlhyksbz3pL-8" value="password" style="ellipse;whiteSpace=wrap;html=1;" vertex="1" parent="1">
          <mxGeometry x="240" y="70" width="90" height="60" as="geometry" />
        </mxCell>
        <mxCell id="S_XeWQ3LaGlhyksbz3pL-9" value="" style="endArrow=none;html=1;rounded=0;entryX=0.5;entryY=1;entryDx=0;entryDy=0;exitX=0.5;exitY=0;exitDx=0;exitDy=0;" edge="1" target="S_XeWQ3LaGlhyksbz3pL-8" parent="1" source="S_XeWQ3LaGlhyksbz3pL-1">
          <mxGeometry width="50" height="50" relative="1" as="geometry">
            <mxPoint x="325" y="227" as="sourcePoint" />
            <mxPoint x="650" y="260" as="targetPoint" />
          </mxGeometry>
        </mxCell>
        <mxCell id="S_XeWQ3LaGlhyksbz3pL-10" value="about" style="ellipse;whiteSpace=wrap;html=1;" vertex="1" parent="1">
          <mxGeometry x="290" y="140" width="90" height="60" as="geometry" />
        </mxCell>
        <mxCell id="S_XeWQ3LaGlhyksbz3pL-11" value="" style="endArrow=none;html=1;rounded=0;entryX=0.5;entryY=1;entryDx=0;entryDy=0;exitX=0.627;exitY=0;exitDx=0;exitDy=0;exitPerimeter=0;" edge="1" parent="1" target="S_XeWQ3LaGlhyksbz3pL-10" source="S_XeWQ3LaGlhyksbz3pL-1">
          <mxGeometry width="50" height="50" relative="1" as="geometry">
            <mxPoint x="375" y="297" as="sourcePoint" />
            <mxPoint x="700" y="330" as="targetPoint" />
          </mxGeometry>
        </mxCell>
        <mxCell id="S_XeWQ3LaGlhyksbz3pL-12" value="id&lt;span style=&quot;white-space: pre;&quot;&gt;&#x9;&lt;/span&gt;" style="ellipse;whiteSpace=wrap;html=1;" vertex="1" parent="1">
          <mxGeometry x="10" y="160" width="90" height="60" as="geometry" />
        </mxCell>
        <mxCell id="S_XeWQ3LaGlhyksbz3pL-13" value="" style="endArrow=none;html=1;rounded=0;entryX=0.5;entryY=1;entryDx=0;entryDy=0;exitX=0.06;exitY=-0.029;exitDx=0;exitDy=0;exitPerimeter=0;" edge="1" parent="1" target="S_XeWQ3LaGlhyksbz3pL-12" source="S_XeWQ3LaGlhyksbz3pL-1">
          <mxGeometry width="50" height="50" relative="1" as="geometry">
            <mxPoint x="95" y="317" as="sourcePoint" />
            <mxPoint x="420" y="350" as="targetPoint" />
          </mxGeometry>
        </mxCell>
        <mxCell id="S_XeWQ3LaGlhyksbz3pL-14" value="post" style="rounded=0;whiteSpace=wrap;html=1;" vertex="1" parent="1">
          <mxGeometry x="450" y="240" width="150" height="70" as="geometry" />
        </mxCell>
        <mxCell id="S_XeWQ3LaGlhyksbz3pL-15" value="post_id" style="ellipse;whiteSpace=wrap;html=1;" vertex="1" parent="1">
          <mxGeometry x="400" y="100" width="90" height="60" as="geometry" />
        </mxCell>
        <mxCell id="S_XeWQ3LaGlhyksbz3pL-16" value="" style="endArrow=none;html=1;rounded=0;entryX=0.5;entryY=1;entryDx=0;entryDy=0;exitX=0.327;exitY=-0.043;exitDx=0;exitDy=0;exitPerimeter=0;" edge="1" parent="1" target="S_XeWQ3LaGlhyksbz3pL-15" source="S_XeWQ3LaGlhyksbz3pL-14">
          <mxGeometry width="50" height="50" relative="1" as="geometry">
            <mxPoint x="330" y="180" as="sourcePoint" />
            <mxPoint x="836" y="270" as="targetPoint" />
          </mxGeometry>
        </mxCell>
        <mxCell id="S_XeWQ3LaGlhyksbz3pL-19" value="title" style="ellipse;whiteSpace=wrap;html=1;" vertex="1" parent="1">
          <mxGeometry x="490" y="83" width="90" height="60" as="geometry" />
        </mxCell>
        <mxCell id="S_XeWQ3LaGlhyksbz3pL-20" value="" style="endArrow=none;html=1;rounded=0;entryX=0.5;entryY=1;entryDx=0;entryDy=0;exitX=0.46;exitY=-0.014;exitDx=0;exitDy=0;exitPerimeter=0;" edge="1" target="S_XeWQ3LaGlhyksbz3pL-19" parent="1" source="S_XeWQ3LaGlhyksbz3pL-14">
          <mxGeometry width="50" height="50" relative="1" as="geometry">
            <mxPoint x="513.48" y="236.51" as="sourcePoint" />
            <mxPoint x="536.53" y="183.5" as="targetPoint" />
          </mxGeometry>
        </mxCell>
        <mxCell id="S_XeWQ3LaGlhyksbz3pL-21" value="content" style="ellipse;whiteSpace=wrap;html=1;" vertex="1" parent="1">
          <mxGeometry x="590" y="83" width="90" height="60" as="geometry" />
        </mxCell>
        <mxCell id="S_XeWQ3LaGlhyksbz3pL-22" value="" style="endArrow=none;html=1;rounded=0;entryX=0.5;entryY=1;entryDx=0;entryDy=0;exitX=0.567;exitY=0;exitDx=0;exitDy=0;exitPerimeter=0;" edge="1" parent="1" target="S_XeWQ3LaGlhyksbz3pL-21" source="S_XeWQ3LaGlhyksbz3pL-14">
          <mxGeometry width="50" height="50" relative="1" as="geometry">
            <mxPoint x="693" y="240" as="sourcePoint" />
            <mxPoint x="1030" y="273" as="targetPoint" />
          </mxGeometry>
        </mxCell>
        <mxCell id="S_XeWQ3LaGlhyksbz3pL-23" value="image" style="ellipse;whiteSpace=wrap;html=1;" vertex="1" parent="1">
          <mxGeometry x="680" y="91.5" width="90" height="60" as="geometry" />
        </mxCell>
        <mxCell id="S_XeWQ3LaGlhyksbz3pL-24" value="" style="endArrow=none;html=1;rounded=0;entryX=0.5;entryY=1;entryDx=0;entryDy=0;exitX=0.653;exitY=-0.029;exitDx=0;exitDy=0;exitPerimeter=0;" edge="1" parent="1" target="S_XeWQ3LaGlhyksbz3pL-23" source="S_XeWQ3LaGlhyksbz3pL-14">
          <mxGeometry width="50" height="50" relative="1" as="geometry">
            <mxPoint x="753" y="248.5" as="sourcePoint" />
            <mxPoint x="1090" y="281.5" as="targetPoint" />
          </mxGeometry>
        </mxCell>
        <mxCell id="S_XeWQ3LaGlhyksbz3pL-25" value="user_id" style="ellipse;whiteSpace=wrap;html=1;fillColor=#ffe6cc;strokeColor=#d79b00;" vertex="1" parent="1">
          <mxGeometry x="710" y="170" width="90" height="60" as="geometry" />
        </mxCell>
        <mxCell id="S_XeWQ3LaGlhyksbz3pL-26" value="" style="endArrow=none;html=1;rounded=0;entryX=0.5;entryY=1;entryDx=0;entryDy=0;exitX=0.7;exitY=-0.029;exitDx=0;exitDy=0;exitPerimeter=0;" edge="1" parent="1" target="S_XeWQ3LaGlhyksbz3pL-25" source="S_XeWQ3LaGlhyksbz3pL-14">
          <mxGeometry width="50" height="50" relative="1" as="geometry">
            <mxPoint x="783" y="327" as="sourcePoint" />
            <mxPoint x="1120" y="360" as="targetPoint" />
          </mxGeometry>
        </mxCell>
        <mxCell id="S_XeWQ3LaGlhyksbz3pL-27" value="category_id" style="ellipse;whiteSpace=wrap;html=1;fillColor=#f8cecc;strokeColor=#b85450;" vertex="1" parent="1">
          <mxGeometry x="830" y="190" width="90" height="60" as="geometry" />
        </mxCell>
        <mxCell id="S_XeWQ3LaGlhyksbz3pL-28" value="" style="endArrow=none;html=1;rounded=0;entryX=0.5;entryY=1;entryDx=0;entryDy=0;" edge="1" parent="1" target="S_XeWQ3LaGlhyksbz3pL-27" source="S_XeWQ3LaGlhyksbz3pL-14">
          <mxGeometry width="50" height="50" relative="1" as="geometry">
            <mxPoint x="903" y="347" as="sourcePoint" />
            <mxPoint x="1240" y="380" as="targetPoint" />
          </mxGeometry>
        </mxCell>
        <mxCell id="S_XeWQ3LaGlhyksbz3pL-30" value="can create" style="rhombus;whiteSpace=wrap;html=1;" vertex="1" parent="1">
          <mxGeometry x="310" y="240" width="80" height="80" as="geometry" />
        </mxCell>
        <mxCell id="S_XeWQ3LaGlhyksbz3pL-31" value="" style="endArrow=none;html=1;rounded=0;exitX=1;exitY=0.5;exitDx=0;exitDy=0;entryX=0;entryY=0.5;entryDx=0;entryDy=0;" edge="1" parent="1" source="S_XeWQ3LaGlhyksbz3pL-30" target="S_XeWQ3LaGlhyksbz3pL-14">
          <mxGeometry width="50" height="50" relative="1" as="geometry">
            <mxPoint x="470" y="320" as="sourcePoint" />
            <mxPoint x="520" y="270" as="targetPoint" />
          </mxGeometry>
        </mxCell>
        <mxCell id="S_XeWQ3LaGlhyksbz3pL-32" value="" style="endArrow=none;html=1;rounded=0;exitX=1;exitY=0.5;exitDx=0;exitDy=0;entryX=0;entryY=0.5;entryDx=0;entryDy=0;" edge="1" parent="1" source="S_XeWQ3LaGlhyksbz3pL-1" target="S_XeWQ3LaGlhyksbz3pL-30">
          <mxGeometry width="50" height="50" relative="1" as="geometry">
            <mxPoint x="470" y="320" as="sourcePoint" />
            <mxPoint x="520" y="270" as="targetPoint" />
          </mxGeometry>
        </mxCell>
        <mxCell id="S_XeWQ3LaGlhyksbz3pL-33" value="1" style="text;strokeColor=none;align=center;fillColor=none;html=1;verticalAlign=middle;whiteSpace=wrap;rounded=0;" vertex="1" parent="1">
          <mxGeometry x="255" y="250" width="60" height="30" as="geometry" />
        </mxCell>
        <mxCell id="S_XeWQ3LaGlhyksbz3pL-34" value="n" style="text;strokeColor=none;align=center;fillColor=none;html=1;verticalAlign=middle;whiteSpace=wrap;rounded=0;" vertex="1" parent="1">
          <mxGeometry x="380" y="250" width="60" height="30" as="geometry" />
        </mxCell>
        <mxCell id="S_XeWQ3LaGlhyksbz3pL-35" value="comment" style="rounded=0;whiteSpace=wrap;html=1;" vertex="1" parent="1">
          <mxGeometry x="360" y="517" width="150" height="70" as="geometry" />
        </mxCell>
        <mxCell id="S_XeWQ3LaGlhyksbz3pL-36" value="comment_id" style="ellipse;whiteSpace=wrap;html=1;" vertex="1" parent="1">
          <mxGeometry x="310" y="377" width="90" height="60" as="geometry" />
        </mxCell>
        <mxCell id="S_XeWQ3LaGlhyksbz3pL-37" value="" style="endArrow=none;html=1;rounded=0;entryX=0.5;entryY=1;entryDx=0;entryDy=0;exitX=0.327;exitY=-0.043;exitDx=0;exitDy=0;exitPerimeter=0;" edge="1" parent="1" source="S_XeWQ3LaGlhyksbz3pL-35" target="S_XeWQ3LaGlhyksbz3pL-36">
          <mxGeometry width="50" height="50" relative="1" as="geometry">
            <mxPoint x="240" y="457" as="sourcePoint" />
            <mxPoint x="746" y="547" as="targetPoint" />
          </mxGeometry>
        </mxCell>
        <mxCell id="S_XeWQ3LaGlhyksbz3pL-38" value="comment" style="ellipse;whiteSpace=wrap;html=1;" vertex="1" parent="1">
          <mxGeometry x="400" y="360" width="90" height="60" as="geometry" />
        </mxCell>
        <mxCell id="S_XeWQ3LaGlhyksbz3pL-39" value="" style="endArrow=none;html=1;rounded=0;entryX=0.5;entryY=1;entryDx=0;entryDy=0;exitX=0.46;exitY=-0.014;exitDx=0;exitDy=0;exitPerimeter=0;" edge="1" parent="1" source="S_XeWQ3LaGlhyksbz3pL-35" target="S_XeWQ3LaGlhyksbz3pL-38">
          <mxGeometry width="50" height="50" relative="1" as="geometry">
            <mxPoint x="423.48" y="513.51" as="sourcePoint" />
            <mxPoint x="446.53" y="460.5" as="targetPoint" />
          </mxGeometry>
        </mxCell>
        <mxCell id="S_XeWQ3LaGlhyksbz3pL-40" value="post_id" style="ellipse;whiteSpace=wrap;html=1;fillColor=#dae8fc;strokeColor=#6c8ebf;" vertex="1" parent="1">
          <mxGeometry x="500" y="360" width="90" height="60" as="geometry" />
        </mxCell>
        <mxCell id="S_XeWQ3LaGlhyksbz3pL-41" value="" style="endArrow=none;html=1;rounded=0;entryX=0.5;entryY=1;entryDx=0;entryDy=0;exitX=0.567;exitY=0;exitDx=0;exitDy=0;exitPerimeter=0;" edge="1" parent="1" source="S_XeWQ3LaGlhyksbz3pL-35" target="S_XeWQ3LaGlhyksbz3pL-40">
          <mxGeometry width="50" height="50" relative="1" as="geometry">
            <mxPoint x="603" y="517" as="sourcePoint" />
            <mxPoint x="940" y="550" as="targetPoint" />
          </mxGeometry>
        </mxCell>
        <mxCell id="S_XeWQ3LaGlhyksbz3pL-42" value="user_id" style="ellipse;whiteSpace=wrap;html=1;fillColor=#ffe6cc;strokeColor=#d79b00;" vertex="1" parent="1">
          <mxGeometry x="210" y="400" width="90" height="60" as="geometry" />
        </mxCell>
        <mxCell id="S_XeWQ3LaGlhyksbz3pL-43" value="" style="endArrow=none;html=1;rounded=0;entryX=0.756;entryY=0.9;entryDx=0;entryDy=0;exitX=0.653;exitY=-0.029;exitDx=0;exitDy=0;exitPerimeter=0;entryPerimeter=0;" edge="1" parent="1" target="S_XeWQ3LaGlhyksbz3pL-42">
          <mxGeometry width="50" height="50" relative="1" as="geometry">
            <mxPoint x="412.95000000000005" y="514.97" as="sourcePoint" />
            <mxPoint x="210" y="460" as="targetPoint" />
          </mxGeometry>
        </mxCell>
        <mxCell id="S_XeWQ3LaGlhyksbz3pL-44" value="have" style="rhombus;whiteSpace=wrap;html=1;" vertex="1" parent="1">
          <mxGeometry x="680" y="437" width="80" height="80" as="geometry" />
        </mxCell>
        <mxCell id="S_XeWQ3LaGlhyksbz3pL-45" value="" style="endArrow=none;html=1;rounded=0;entryX=0.75;entryY=1;entryDx=0;entryDy=0;exitX=0.5;exitY=0;exitDx=0;exitDy=0;" edge="1" parent="1" source="S_XeWQ3LaGlhyksbz3pL-44" target="S_XeWQ3LaGlhyksbz3pL-14">
          <mxGeometry width="50" height="50" relative="1" as="geometry">
            <mxPoint x="350" y="400" as="sourcePoint" />
            <mxPoint x="400" y="350" as="targetPoint" />
          </mxGeometry>
        </mxCell>
        <mxCell id="S_XeWQ3LaGlhyksbz3pL-46" value="" style="endArrow=none;html=1;rounded=0;entryX=0;entryY=0.5;entryDx=0;entryDy=0;exitX=1;exitY=0.5;exitDx=0;exitDy=0;" edge="1" parent="1" source="S_XeWQ3LaGlhyksbz3pL-35" target="S_XeWQ3LaGlhyksbz3pL-44">
          <mxGeometry width="50" height="50" relative="1" as="geometry">
            <mxPoint x="350" y="400" as="sourcePoint" />
            <mxPoint x="400" y="350" as="targetPoint" />
          </mxGeometry>
        </mxCell>
        <mxCell id="S_XeWQ3LaGlhyksbz3pL-47" value="do" style="rhombus;whiteSpace=wrap;html=1;" vertex="1" parent="1">
          <mxGeometry x="110" y="427" width="80" height="80" as="geometry" />
        </mxCell>
        <mxCell id="S_XeWQ3LaGlhyksbz3pL-48" value="" style="endArrow=none;html=1;rounded=0;entryX=0.42;entryY=1.014;entryDx=0;entryDy=0;exitX=0.5;exitY=0;exitDx=0;exitDy=0;entryPerimeter=0;" edge="1" parent="1" source="S_XeWQ3LaGlhyksbz3pL-47" target="S_XeWQ3LaGlhyksbz3pL-1">
          <mxGeometry width="50" height="50" relative="1" as="geometry">
            <mxPoint x="-220" y="390" as="sourcePoint" />
            <mxPoint x="-7" y="300" as="targetPoint" />
          </mxGeometry>
        </mxCell>
        <mxCell id="S_XeWQ3LaGlhyksbz3pL-49" value="" style="endArrow=none;html=1;rounded=0;entryX=1;entryY=0.5;entryDx=0;entryDy=0;exitX=0;exitY=0.5;exitDx=0;exitDy=0;" edge="1" parent="1" target="S_XeWQ3LaGlhyksbz3pL-47" source="S_XeWQ3LaGlhyksbz3pL-35">
          <mxGeometry width="50" height="50" relative="1" as="geometry">
            <mxPoint x="-60" y="542" as="sourcePoint" />
            <mxPoint x="-170" y="340" as="targetPoint" />
          </mxGeometry>
        </mxCell>
        <mxCell id="S_XeWQ3LaGlhyksbz3pL-50" value="n" style="text;strokeColor=none;align=center;fillColor=none;html=1;verticalAlign=middle;whiteSpace=wrap;rounded=0;" vertex="1" parent="1">
          <mxGeometry x="255" y="520" width="60" height="30" as="geometry" />
        </mxCell>
        <mxCell id="S_XeWQ3LaGlhyksbz3pL-51" value="1" style="text;strokeColor=none;align=center;fillColor=none;html=1;verticalAlign=middle;whiteSpace=wrap;rounded=0;" vertex="1" parent="1">
          <mxGeometry x="100" y="347" width="60" height="30" as="geometry" />
        </mxCell>
        <mxCell id="S_XeWQ3LaGlhyksbz3pL-52" value="1" style="text;strokeColor=none;align=center;fillColor=none;html=1;verticalAlign=middle;whiteSpace=wrap;rounded=0;" vertex="1" parent="1">
          <mxGeometry x="640" y="347" width="60" height="30" as="geometry" />
        </mxCell>
        <mxCell id="S_XeWQ3LaGlhyksbz3pL-53" value="n" style="text;strokeColor=none;align=center;fillColor=none;html=1;verticalAlign=middle;whiteSpace=wrap;rounded=0;" vertex="1" parent="1">
          <mxGeometry x="580" y="477" width="60" height="30" as="geometry" />
        </mxCell>
        <mxCell id="S_XeWQ3LaGlhyksbz3pL-55" value="" style="endArrow=none;html=1;rounded=0;entryX=0.283;entryY=1;entryDx=0;entryDy=0;entryPerimeter=0;" edge="1" parent="1" source="S_XeWQ3LaGlhyksbz3pL-14">
          <mxGeometry width="50" height="50" relative="1" as="geometry">
            <mxPoint x="630" y="60" as="sourcePoint" />
            <mxPoint x="873.96" y="50" as="targetPoint" />
          </mxGeometry>
        </mxCell>
        <mxCell id="S_XeWQ3LaGlhyksbz3pL-56" value="contains" style="rhombus;whiteSpace=wrap;html=1;" vertex="1" parent="1">
          <mxGeometry x="870" y="11.5" width="80" height="80" as="geometry" />
        </mxCell>
        <mxCell id="S_XeWQ3LaGlhyksbz3pL-57" value="category" style="rounded=0;whiteSpace=wrap;html=1;" vertex="1" parent="1">
          <mxGeometry x="840" y="-90" width="120" height="60" as="geometry" />
        </mxCell>
        <mxCell id="S_XeWQ3LaGlhyksbz3pL-58" value="category_id" style="ellipse;whiteSpace=wrap;html=1;" vertex="1" parent="1">
          <mxGeometry x="640" y="-210" width="120" height="80" as="geometry" />
        </mxCell>
        <mxCell id="S_XeWQ3LaGlhyksbz3pL-59" value="title" style="ellipse;whiteSpace=wrap;html=1;" vertex="1" parent="1">
          <mxGeometry x="815" y="-220" width="120" height="80" as="geometry" />
        </mxCell>
        <mxCell id="S_XeWQ3LaGlhyksbz3pL-62" value="" style="endArrow=none;html=1;rounded=0;entryX=0.092;entryY=-0.083;entryDx=0;entryDy=0;entryPerimeter=0;" edge="1" parent="1" source="S_XeWQ3LaGlhyksbz3pL-58" target="S_XeWQ3LaGlhyksbz3pL-57">
          <mxGeometry width="50" height="50" relative="1" as="geometry">
            <mxPoint x="610" y="60" as="sourcePoint" />
            <mxPoint x="660" y="10" as="targetPoint" />
            <Array as="points">
              <mxPoint x="740" y="-140" />
            </Array>
          </mxGeometry>
        </mxCell>
        <mxCell id="S_XeWQ3LaGlhyksbz3pL-63" value="" style="endArrow=none;html=1;rounded=0;entryX=0.5;entryY=1;entryDx=0;entryDy=0;" edge="1" parent="1" source="S_XeWQ3LaGlhyksbz3pL-57" target="S_XeWQ3LaGlhyksbz3pL-59">
          <mxGeometry width="50" height="50" relative="1" as="geometry">
            <mxPoint x="610" y="60" as="sourcePoint" />
            <mxPoint x="660" y="10" as="targetPoint" />
          </mxGeometry>
        </mxCell>
        <mxCell id="S_XeWQ3LaGlhyksbz3pL-64" value="" style="endArrow=none;html=1;rounded=0;" edge="1" parent="1">
          <mxGeometry width="50" height="50" relative="1" as="geometry">
            <mxPoint x="910" y="10" as="sourcePoint" />
            <mxPoint x="890" y="-30" as="targetPoint" />
            <Array as="points">
              <mxPoint x="890" y="-30" />
            </Array>
          </mxGeometry>
        </mxCell>
        <mxCell id="S_XeWQ3LaGlhyksbz3pL-65" value="n" style="text;strokeColor=none;align=center;fillColor=none;html=1;verticalAlign=middle;whiteSpace=wrap;rounded=0;" vertex="1" parent="1">
          <mxGeometry x="800" y="40" width="60" height="30" as="geometry" />
        </mxCell>
        <mxCell id="S_XeWQ3LaGlhyksbz3pL-66" value="1" style="text;strokeColor=none;align=center;fillColor=none;html=1;verticalAlign=middle;whiteSpace=wrap;rounded=0;" vertex="1" parent="1">
          <mxGeometry x="880" y="-30" width="60" height="30" as="geometry" />
        </mxCell>
      </root>
    </mxGraphModel>
  </diagram>
</mxfile>
